<?xml version="1.0" encoding="UTF-8"?>
<svg version="1.1" xmlns="http://www.w3.org/2000/svg" width="498" height="146">
<path d="M0 0 C164.34 0 328.68 0 498 0 C498 48.18 498 96.36 498 146 C333.66 146 169.32 146 0 146 C0 97.82 0 49.64 0 0 Z " fill="#FDFDFD" transform="translate(0,0)"/>
<path d="M0 0 C2.28125 1.6796875 2.28125 1.6796875 4.5 3.875 C7.53660841 6.85814699 9.94350523 8.64307393 14 10 C14.0825 11.216875 14.165 12.43375 14.25 13.6875 C14.82931037 19.11745394 16.46052012 24.10585303 18.16015625 29.27734375 C19 32 19 32 19 34 C12.73 34.33 6.46 34.66 0 35 C-4.94637745 44.88542172 -4.94637745 44.88542172 -6.4140625 55.4921875 C-6.45273438 56.69101563 -6.49140625 57.88984375 -6.53125 59.125 C-6.57765625 60.98125 -6.57765625 60.98125 -6.625 62.875 C-6.66367188 64.13570313 -6.70234375 65.39640625 -6.7421875 66.6953125 C-6.83616989 69.79673137 -6.92183411 72.89814886 -7 76 C-7.66 76 -8.32 76 -9 76 C-9.33 66.1 -9.66 56.2 -10 46 C-15.94 45.67 -21.88 45.34 -28 45 C-30.83173754 33.67304984 -32.02023194 24.40676884 -29 13 C-26.53199953 14.15173355 -24.95216435 15.04783565 -23 17 C-19.91652174 17.16681109 -19.91652174 17.16681109 -17 17 C-15.74899554 15.07439475 -15.74899554 15.07439475 -16.55859375 13.1953125 C-16.84863281 12.51210938 -17.13867188 11.82890625 -17.4375 11.125 C-18.76902316 7.98427722 -19 6.59943974 -19 3 C-16.77228658 2.49356447 -14.54275924 1.9951038 -12.3125 1.5 C-10.45044922 1.08234375 -10.45044922 1.08234375 -8.55078125 0.65625 C-2.80575297 -0.4055374 -2.80575297 -0.4055374 0 0 Z " fill="#4C4C4C" transform="translate(101,27)"/>
<path d="M0 0 C1.32 0 2.64 0 4 0 C4.33 4.62 4.66 9.24 5 14 C5.99 13.01 6.98 12.02 8 11 C11.06631357 10.31094077 13.91786179 10.42040635 17 11 C20.7208205 13.77082377 22.87433976 16.49735903 24 21 C24.58360298 25.83941546 24.49358161 29.06389696 22.1875 33.4375 C19.95080511 36.05762831 18.34551888 37.81230987 14.84375 38.30078125 C13.68359375 38.30658203 13.68359375 38.30658203 12.5 38.3125 C11.33984375 38.33763672 11.33984375 38.33763672 10.15625 38.36328125 C7.52984103 37.92078843 6.66442897 37.02185443 5 35 C4.67 35.99 4.34 36.98 4 38 C2.68 38 1.36 38 0 38 C0 25.46 0 12.92 0 0 Z " fill="#0B0B0B" transform="translate(236,64)"/>
<path d="M0 0 C3.69382794 2.11075883 5.40586054 4.12161741 7 8 C7.6949651 13.34961508 7.65184874 17.71878006 5.1875 22.5625 C2.76769985 25.25884874 1.12991799 26.84957748 -2.5234375 27.3359375 C-10.19950495 27.44108911 -10.19950495 27.44108911 -14.0625 25.3125 C-17.58201366 21.11179015 -18.41027513 17.57320283 -18.25390625 12.05859375 C-17.73698264 7.86753615 -16.35727851 4.28237352 -13.23046875 1.328125 C-9.130641 -1.11310343 -4.6107043 -0.62251349 0 0 Z " fill="#0C0C0C" transform="translate(313,75)"/>
<path d="M0 0 C3.69382794 2.11075883 5.40586054 4.12161741 7 8 C7.6949651 13.34961508 7.65184874 17.71878006 5.1875 22.5625 C2.76769985 25.25884874 1.12991799 26.84957748 -2.5234375 27.3359375 C-10.19950495 27.44108911 -10.19950495 27.44108911 -14.0625 25.3125 C-17.58201366 21.11179015 -18.41027513 17.57320283 -18.25390625 12.05859375 C-17.73698264 7.86753615 -16.35727851 4.28237352 -13.23046875 1.328125 C-9.130641 -1.11310343 -4.6107043 -0.62251349 0 0 Z " fill="#0C0C0C" transform="translate(283,75)"/>
<path d="M0 0 C0.33 0.66 0.66 1.32 1 2 C-0.3125 4.625 -0.3125 4.625 -2 7 C-2.66 7 -3.32 7 -4 7 C-3.67 7.66 -3.34 8.32 -3 9 C-1.02 6.36 0.96 3.72 3 1 C4.0826674 5.33066959 3.70725583 7.03729855 2.5625 11.25 C2.13130859 12.86648437 2.13130859 12.86648437 1.69140625 14.515625 C1.46324219 15.33546875 1.23507813 16.1553125 1 17 C0.34 17 -0.32 17 -1 17 C-1.33 18.65 -1.66 20.3 -2 22 C-1.34 22 -0.68 22 0 22 C0 26.29 0 30.58 0 35 C-0.33 34.34 -0.66 33.68 -1 33 C-6.94 32.67 -12.88 32.34 -19 32 C-23.85714286 12.57142857 -23.85714286 12.57142857 -21 4 C-20.01 3.34 -19.02 2.68 -18 2 C-16 3.8125 -16 3.8125 -14 6 C-14 6.99 -14 7.98 -14 9 C-13.2575 9.268125 -12.515 9.53625 -11.75 9.8125 C-9.13363446 10.94229421 -7.19812889 12.20893202 -5 14 C-5 13.34 -5 12.68 -5 12 C-6.32 11.34 -7.64 10.68 -9 10 C-9 8.68 -9 7.36 -9 6 C-7.03125 4.296875 -7.03125 4.296875 -4.5 2.75 C-3.6646875 2.22921875 -2.829375 1.7084375 -1.96875 1.171875 C-1.3190625 0.78515625 -0.669375 0.3984375 0 0 Z " fill="#404040" transform="translate(92,40)"/>
<path d="M0 0 C2.69105198 2.17574416 4.45532928 3.91065856 6 7 C6 9.64 6 12.28 6 15 C0.06 15 -5.88 15 -12 15 C-11.34 17.31 -10.68 19.62 -10 22 C-5.38 22 -0.76 22 4 22 C4 23.32 4 24.64 4 26 C-0.35686158 27.45228719 -4.45115105 27.63669736 -9 27 C-12.1892594 25.37614084 -14.21609096 23.03333465 -16.375 20.1875 C-17.80369249 15.18707629 -17.31520598 11.06819805 -15.875 6.1875 C-12.16169254 -0.12512268 -6.78554329 -0.86165629 0 0 Z " fill="#0D0D0D" transform="translate(420,75)"/>
<path d="M0 0 C3.125 1.875 3.125 1.875 5 5 C5.39481141 8.44801967 5.23283212 11.50751818 5 15 C-0.94 15 -6.88 15 -13 15 C-10.83333333 20.83333333 -10.83333333 20.83333333 -8 22 C-5.95944995 22.07065617 -3.91665743 22.08421976 -1.875 22.0625 C-0.77929688 22.05347656 0.31640625 22.04445313 1.4453125 22.03515625 C2.28835938 22.02355469 3.13140625 22.01195313 4 22 C4 23.32 4 24.64 4 26 C-0.37573902 27.45857967 -4.43730153 27.75239657 -9 27 C-12.4331459 24.99681792 -15.21130844 22.57738311 -17 19 C-17.5350086 13.63237273 -17.66175234 9.30068563 -15.1875 4.4375 C-10.6392815 -0.6305149 -6.4815552 -0.95984814 0 0 Z " fill="#0D0D0D" transform="translate(380,75)"/>
<path d="M0 0 C3.58552881 1.63687185 4.79315055 2.68972583 7 6 C7 8.97 7 11.94 7 15 C1.06 15 -4.88 15 -11 15 C-8.83333333 20.83333333 -8.83333333 20.83333333 -6 22 C-3.95944995 22.07065617 -1.91665743 22.08421976 0.125 22.0625 C1.22070312 22.05347656 2.31640625 22.04445313 3.4453125 22.03515625 C4.28835937 22.02355469 5.13140625 22.01195313 6 22 C6 23.32 6 24.64 6 26 C0.78540733 27.73819756 -4.81702454 27.88247944 -9.9375 25.8125 C-13.12833936 23.00842905 -14.78730852 20.31691473 -15.46875 16.09765625 C-15.56350734 6.89434919 -15.56350734 6.89434919 -12.625 3.3125 C-8.56583885 -0.26342768 -5.29773027 -0.57959813 0 0 Z " fill="#0D0D0D" transform="translate(222,75)"/>
<path d="M0 0 C0.94488281 -0.04898438 1.88976562 -0.09796875 2.86328125 -0.1484375 C5.6875 0.375 5.6875 0.375 8.5234375 2.19140625 C11.73786134 6.92020667 11.23181581 11.11322131 11 16.6875 C10.97744141 17.71423828 10.95488281 18.74097656 10.93164062 19.79882812 C10.87287575 22.3257179 10.79077849 24.84960255 10.6875 27.375 C9.924375 27.189375 9.16125 27.00375 8.375 26.8125 C5.59782625 26.14680827 5.59782625 26.14680827 2.6875 27.375 C-0.83544041 27.63121385 -3.43674951 27.76678311 -6.6875 26.3125 C-9.16822029 23.35471812 -9.37834389 21.19394541 -9.3125 17.375 C-7.15817661 14.696652 -5.38741161 12.91245581 -2.3125 11.375 C-0.77226004 11.30549459 0.77084988 11.29047643 2.3125 11.3125 C3.53839844 11.32603516 3.53839844 11.32603516 4.7890625 11.33984375 C5.72878906 11.35724609 5.72878906 11.35724609 6.6875 11.375 C6.0275 9.395 5.3675 7.415 4.6875 5.375 C0.7275 5.375 -3.2325 5.375 -7.3125 5.375 C-7.3125 4.055 -7.3125 2.735 -7.3125 1.375 C-4.7764472 0.1069736 -2.83238836 0.09965101 0 0 Z " fill="#141414" transform="translate(164.3125,74.625)"/>
<path d="M0 0 C1.65 0 3.3 0 5 0 C5.33 7.26 5.66 14.52 6 22 C7.381875 20.185 8.76375 18.37 10.1875 16.5 C12.54296875 13.40625 12.54296875 13.40625 15 11 C17.80078125 10.65625 17.80078125 10.65625 20 11 C17.39163722 15.63708939 14.22997426 19.78744458 11 24 C12.0828125 25.39025391 12.0828125 25.39025391 13.1875 26.80859375 C14.1251261 28.01813142 15.06261926 29.22777216 16 30.4375 C16.47695313 31.04916016 16.95390625 31.66082031 17.4453125 32.29101562 C21 36.88671875 21 36.88671875 21 38 C18.83203125 38.375 18.83203125 38.375 16 38 C13.9877866 36.02597459 12.37415489 34.21888821 10.6875 32 C10.23310547 31.42765625 9.77871094 30.8553125 9.31054688 30.265625 C8.19337205 28.85445681 7.09482029 27.42858104 6 26 C5.67 29.96 5.34 33.92 5 38 C3.35 38 1.7 38 0 38 C0 25.46 0 12.92 0 0 Z " fill="#343434" transform="translate(326,64)"/>
<path d="M0 0 C1.65 0.33 3.3 0.66 5 1 C4.01 1.33 3.02 1.66 2 2 C2.99 4.97 3.98 7.94 5 11 C6.11375 10.34 7.2275 9.68 8.375 9 C11.75 7 11.75 7 14 7 C14 5.68 14 4.36 14 3 C17.8063457 3.67170806 21.35206816 4.72746564 25 6 C25 6.33 25 6.66 25 7 C22.36 7.33 19.72 7.66 17 8 C16.49453964 10.08201528 15.99583165 12.16567067 15.5 14.25 C15.2215625 15.41015625 14.943125 16.5703125 14.65625 17.765625 C13.86743548 21.10330712 13.86743548 21.10330712 14 25 C15.32 24.01 16.64 23.02 18 22 C16.84826645 24.46800047 15.95216435 26.04783565 14 28 C12.66965537 31.5919305 12.92720577 35.21470013 13 39 C13.33 39 13.66 39 14 39 C14.04254356 40.99954746 14.04080783 43.00041636 14 45 C13.67 45.33 13.34 45.66 13 46 C12.84174742 47.99782126 12.74880829 50.00088834 12.68359375 52.00390625 C12.64169922 53.21884766 12.59980469 54.43378906 12.55664062 55.68554688 C12.51732422 56.96494141 12.47800781 58.24433594 12.4375 59.5625 C12.39431641 60.84576172 12.35113281 62.12902344 12.30664062 63.45117188 C12.200152 66.63399853 12.09814038 69.81690674 12 73 C11.34 73 10.68 73 10 73 C10 59.47 10 45.94 10 32 C9.34 32 8.68 32 8 32 C8 30.35 8 28.7 8 27 C8.66 26.67 9.32 26.34 10 26 C10.91638103 23.52909026 10.91638103 23.52909026 11.625 20.625 C11.88539062 19.64789063 12.14578125 18.67078125 12.4140625 17.6640625 C13.10740357 14.96629467 13.10740357 14.96629467 13 12 C11.02 14.64 9.04 17.28 7 20 C6.67 19.01 6.34 18.02 6 17 C6.66 17 7.32 17 8 17 C8.66 15.02 9.32 13.04 10 11 C9.51789063 11.3609375 9.03578125 11.721875 8.5390625 12.09375 C7.90742187 12.5578125 7.27578125 13.021875 6.625 13.5 C5.99851562 13.9640625 5.37203125 14.428125 4.7265625 14.90625 C3 16 3 16 1 16 C2.11854586 19.72614153 2.11854586 19.72614153 5 22 C5 22.66 5 23.32 5 24 C4.46375 23.71125 3.9275 23.4225 3.375 23.125 C0.64719516 21.83288192 -2.12612718 20.91441408 -5 20 C-5.12375 19.21625 -5.2475 18.4325 -5.375 17.625 C-5.79117993 14.85942178 -5.79117993 14.85942178 -8 13 C-8.66 13.66 -9.32 14.32 -10 15 C-10 13.35 -10 11.7 -10 10 C-7.53199953 11.15173355 -5.95216435 12.04783565 -4 14 C-0.91652174 14.16681109 -0.91652174 14.16681109 2 14 C3.25100446 12.07439475 3.25100446 12.07439475 2.44140625 10.1953125 C2.15136719 9.51210938 1.86132812 8.82890625 1.5625 8.125 C0.23097684 4.98427722 0 3.59943974 0 0 Z " fill="#4E4E4E" transform="translate(82,30)"/>
<path d="M0 0 C2.93173449 3.15725253 3.89124804 5.23873628 4.5 9.5 C3.89124804 13.76126372 2.93173449 15.84274747 0 19 C-3.4375 20.1875 -3.4375 20.1875 -7 20 C-9.678348 17.84567661 -11.46254419 16.07491161 -13 13 C-13.54724071 7.30869663 -12.59333707 4.43882815 -9 0 C-5.74048884 -1.62975558 -3.45293671 -0.89300087 0 0 Z " fill="#F2F2F2" transform="translate(312,79)"/>
<path d="M0 0 C2.93173449 3.15725253 3.89124804 5.23873628 4.5 9.5 C3.89124804 13.76126372 2.93173449 15.84274747 0 19 C-3.4375 20.1875 -3.4375 20.1875 -7 20 C-9.678348 17.84567661 -11.46254419 16.07491161 -13 13 C-13.54724071 7.30869663 -12.59333707 4.43882815 -9 0 C-5.74048884 -1.62975558 -3.45293671 -0.89300087 0 0 Z " fill="#F2F2F2" transform="translate(282,79)"/>
<path d="M0 0 C6.6 0 13.2 0 20 0 C20 1.32 20 2.64 20 4 C14.72 4 9.44 4 4 4 C4 7.96 4 11.92 4 16 C8.62 16 13.24 16 18 16 C18 17.65 18 19.3 18 21 C13.38 21 8.76 21 4 21 C4 25.95 4 30.9 4 36 C2.68 36 1.36 36 0 36 C0 24.12 0 12.24 0 0 Z " fill="#131313" transform="translate(131,66)"/>
<path d="M0 0 C3.5 0.5625 3.5 0.5625 5.9375 1.875 C8.41786802 6.141233 8.28568464 10.74929678 7.5 15.5625 C6.22265625 17.87890625 6.22265625 17.87890625 4.5 19.5625 C1.79238135 20.25578139 -0.75708359 20.04351248 -3.5 19.5625 C-6.17431489 17.75086733 -6.45920359 16.68488923 -7.5 13.5625 C-7.86646277 9.01836168 -8.04833483 6.61530288 -5.9375 2.5625 C-3.5 0.5625 -3.5 0.5625 0 0 Z " fill="#F7F7F7" transform="translate(247.5,78.4375)"/>
<path d="M0 0 C0.96164063 0.01546875 1.92328125 0.0309375 2.9140625 0.046875 C5.375 0.25 5.375 0.25 7.375 1.25 C7.375 2.57 7.375 3.89 7.375 5.25 C6.25351563 5.18039063 6.25351563 5.18039063 5.109375 5.109375 C-0.82478783 4.80343576 -0.82478783 4.80343576 -6.3125 6.6875 C-8.29673925 10.56149092 -8.48769262 13.99707674 -7.625 18.25 C-5.7485883 21.46013047 -5.7485883 21.46013047 -2.625 23.25 C1.19764001 23.64544552 3.73717368 23.46260877 7.375 22.25 C7.375 23.57 7.375 24.89 7.375 26.25 C3.43017665 28.22241167 -1.32461189 27.69186332 -5.625 27.25 C-10.00551389 24.87722164 -11.90011943 21.87994259 -13.625 17.25 C-14.39440572 11.20466934 -12.98293228 8.10034663 -9.625 3.25 C-6.45600826 0.26090735 -4.30703653 -0.11609263 0 0 Z " fill="#181818" transform="translate(194.625,74.75)"/>
<path d="M0 0 C2.5 1.8125 2.5 1.8125 5 4 C5 4.99 5 5.98 5 7 C5.78375 7.268125 6.5675 7.53625 7.375 7.8125 C10 9 10 9 12 12 C10.54970675 14.17245573 9.09044056 16.33780089 7.625 18.5 C7.2125 19.12003906 6.8 19.74007812 6.375 20.37890625 C5.30100332 21.95525621 4.15511468 23.48208757 3 25 C2.34 25 1.68 25 1 25 C0.566875 23.88625 0.566875 23.88625 0.125 22.75 C-0.89540251 20.09752118 -0.89540251 20.09752118 -2.05859375 18.10546875 C-4.16554062 13.39325147 -3.47082115 6.85370979 -2 2 C-1.34 1.34 -0.68 0.68 0 0 Z " fill="#F5F5F5" transform="translate(73,42)"/>
<path d="M0 0 C1.65 0 3.3 0 5 0 C5 12.54 5 25.08 5 38 C3.35 38 1.7 38 0 38 C0 25.46 0 12.92 0 0 Z " fill="#2B2B2B" transform="translate(392,64)"/>
<path d="M0 0 C0.33 0.66 0.66 1.32 1 2 C-0.3125 4.625 -0.3125 4.625 -2 7 C-2.66 7 -3.32 7 -4 7 C-3.67 7.66 -3.34 8.32 -3 9 C-1.02 6.36 0.96 3.72 3 1 C4.0826674 5.33066959 3.70725583 7.03729855 2.5625 11.25 C2.27503906 12.32765625 1.98757812 13.4053125 1.69140625 14.515625 C1.46324219 15.33546875 1.23507813 16.1553125 1 17 C0.34 17 -0.32 17 -1 17 C-1.03996094 17.59296875 -1.07992187 18.1859375 -1.12109375 18.796875 C-2.47016112 22.17853721 -4.83413917 22.7547592 -8.0625 24.25 C-9.16722656 24.77078125 -10.27195312 25.2915625 -11.41015625 25.828125 C-12.26480469 26.21484375 -13.11945313 26.6015625 -14 27 C-12.796448 23.77381199 -11.50273869 20.99011298 -9.5 18.1875 C-9.0771875 17.58292969 -8.654375 16.97835937 -8.21875 16.35546875 C-7.8165625 15.90816406 -7.414375 15.46085937 -7 15 C-6.34 15 -5.68 15 -5 15 C-5 14.01 -5 13.02 -5 12 C-6.32 11.34 -7.64 10.68 -9 10 C-9 8.68 -9 7.36 -9 6 C-7.03125 4.296875 -7.03125 4.296875 -4.5 2.75 C-3.6646875 2.22921875 -2.829375 1.7084375 -1.96875 1.171875 C-1.3190625 0.78515625 -0.669375 0.3984375 0 0 Z " fill="#959595" transform="translate(92,40)"/>
<path d="M0 0 C1.32 0 2.64 0 4 0 C4 12.54 4 25.08 4 38 C2.68 38 1.36 38 0 38 C0 25.46 0 12.92 0 0 Z " fill="#0A0A0A" transform="translate(352,64)"/>
<path d="M0 0 C0.66 0 1.32 0 2 0 C2.83679277 2.62394306 3.66956942 5.24904384 4.5 7.875 C4.73847656 8.62136719 4.97695312 9.36773437 5.22265625 10.13671875 C7 15.7734375 7 15.7734375 7 18 C2.05 18 -2.9 18 -8 18 C-6.97518605 13.90074419 -5.3501486 10.4768242 -3.4375 6.75 C-3.10814453 6.1003125 -2.77878906 5.450625 -2.43945312 4.78125 C-1.62992435 3.18565706 -0.81544958 1.59257517 0 0 Z " fill="#F7F7F7" transform="translate(111,41)"/>
<path d="M0 0 C2.0078125 0.1328125 2.0078125 0.1328125 5.0078125 1.1328125 C4.44435225 4.8615936 2.97500792 6.46427243 0.2578125 9.0078125 C-2.29494413 11.45515907 -4.70651445 13.88155435 -6.9296875 16.6328125 C-7.950625 17.8703125 -7.950625 17.8703125 -8.9921875 19.1328125 C-9.3221875 19.1328125 -9.6521875 19.1328125 -9.9921875 19.1328125 C-8.1728871 0.03015825 -8.1728871 0.03015825 0 0 Z " fill="#F1F1F1" transform="translate(104.9921875,36.8671875)"/>
<path d="M0 0 C2.28062828 3.42094242 2.21925007 4.68187222 2.125 8.6875 C2.10695313 9.68136719 2.08890625 10.67523438 2.0703125 11.69921875 C2.03550781 12.83810547 2.03550781 12.83810547 2 14 C2.33 14 2.66 14 3 14 C3.04254356 15.99954746 3.04080783 18.00041636 3 20 C2.67 20.33 2.34 20.66 2 21 C1.84174742 22.99782126 1.74880829 25.00088834 1.68359375 27.00390625 C1.64169922 28.21884766 1.59980469 29.43378906 1.55664062 30.68554688 C1.49766602 32.60463867 1.49766602 32.60463867 1.4375 34.5625 C1.37272461 36.48739258 1.37272461 36.48739258 1.30664062 38.45117188 C1.200152 41.63399853 1.09814038 44.81690674 1 48 C0.34 48 -0.32 48 -1 48 C-1 34.47 -1 20.94 -1 7 C-1.66 7 -2.32 7 -3 7 C-3.1875 4.625 -3.1875 4.625 -3 2 C-2.01 1.34 -1.02 0.68 0 0 Z " fill="#040404" transform="translate(93,55)"/>
<path d="M0 0 C1.33333333 0.66666667 2.66666667 1.33333333 4 2 C5.051875 2.350625 6.10375 2.70125 7.1875 3.0625 C8.5796875 4.0215625 8.5796875 4.0215625 10 5 C10.625 8.875 10.625 8.875 10.72265625 11.24609375 C11.17934223 15.78079255 12.74256668 19.96403741 14.16015625 24.27734375 C15 27 15 27 15 29 C8.73 29 2.46 29 -4 29 C-4 28.67 -4 28.34 -4 28 C1.61 28 7.22 28 13 28 C11.35923869 22.86798069 11.35923869 22.86798069 9.70898438 17.73901367 C8.75555883 14.72323788 8 12.18094183 8 9 C7.34 9 6.68 9 6 9 C5.731875 9.886875 5.46375 10.77375 5.1875 11.6875 C4.08289181 14.76877548 2.77150856 17.26221405 1 20 C0 18 0 18 0 16 C-1.65 17.32 -3.3 18.64 -5 20 C-3.60669258 16.8142971 -1.97103262 14.80177783 0.5625 12.4375 C2.99626295 10.1656506 3.92259794 9.23220618 5 6 C4.01 5.67 3.02 5.34 2 5 C2 4.34 2 3.68 2 3 C1.34 2.01 0.68 1.02 0 0 Z " fill="#2E2E2E" transform="translate(105,32)"/>
<path d="M0 0 C0.99 0 1.98 0 3 0 C3 12.21 3 24.42 3 37 C2.01 37 1.02 37 0 37 C0 24.79 0 12.58 0 0 Z " fill="#000000" transform="translate(327,65)"/>
<path d="M0 0 C2.375 1.6875 2.375 1.6875 4 4 C4 5.65 4 7.3 4 9 C-0.95 9 -5.9 9 -11 9 C-7.63636364 -1.09090909 -7.63636364 -1.09090909 0 0 Z " fill="#E5E5E5" transform="translate(418,78)"/>
<path d="M0 0 C3.4375 1 3.4375 1 5.375 2.8125 C6.4375 5 6.4375 5 6.4375 9 C1.4875 9 -3.4625 9 -8.5625 9 C-7.36679704 3.0214852 -6.48739362 0 0 0 Z " fill="#E6E6E6" transform="translate(375.5625,78)"/>
<path d="M0 0 C3.3376027 0.66752054 4.50600369 1.76748653 6.5 4.5 C6.5 6.15 6.5 7.8 6.5 9.5 C1.88 9.5 -2.74 9.5 -7.5 9.5 C-6.45132483 4.25662413 -5.55216599 1.1104332 0 0 Z " fill="#EAEAEA" transform="translate(218.5,77.5)"/>
<path d="M0 0 C1.65 0.33 3.3 0.66 5 1 C4.01 1.33 3.02 1.66 2 2 C2.99 4.97 3.98 7.94 5 11 C5.78375 10.484375 6.5675 9.96875 7.375 9.4375 C8.674375 8.7259375 8.674375 8.7259375 10 8 C10.66 8.33 11.32 8.66 12 9 C10.54634731 10.17249353 9.08692581 11.33783816 7.625 12.5 C6.81289062 13.1496875 6.00078125 13.799375 5.1640625 14.46875 C3 16 3 16 1 16 C2.11854586 19.72614153 2.11854586 19.72614153 5 22 C5 22.66 5 23.32 5 24 C4.46375 23.71125 3.9275 23.4225 3.375 23.125 C0.64719516 21.83288192 -2.12612718 20.91441408 -5 20 C-5.12375 19.21625 -5.2475 18.4325 -5.375 17.625 C-5.79117993 14.85942178 -5.79117993 14.85942178 -8 13 C-8.66 13.66 -9.32 14.32 -10 15 C-10 13.35 -10 11.7 -10 10 C-7.53199953 11.15173355 -5.95216435 12.04783565 -4 14 C-0.91652174 14.16681109 -0.91652174 14.16681109 2 14 C3.25100446 12.07439475 3.25100446 12.07439475 2.44140625 10.1953125 C2.15136719 9.51210938 1.86132812 8.82890625 1.5625 8.125 C0.23097684 4.98427722 0 3.59943974 0 0 Z " fill="#323232" transform="translate(82,30)"/>
<path d="M0 0 C1.21816406 0.03480469 1.21816406 0.03480469 2.4609375 0.0703125 C3.68683594 0.09738281 3.68683594 0.09738281 4.9375 0.125 C5.87722656 0.15980469 5.87722656 0.15980469 6.8359375 0.1953125 C7.1959375 5.5953125 7.1959375 5.5953125 5.7109375 8.0703125 C2.99374926 9.70062544 0.93941004 9.52546915 -2.1640625 9.1953125 C-4.1640625 7.1953125 -4.1640625 7.1953125 -4.4140625 4.6953125 C-4.08960287 1.45071617 -3.32727288 0.30029539 0 0 Z " fill="#F2F2F2" transform="translate(164.1640625,89.8046875)"/>
<path d="M0 0 C0 3.3 0 6.6 0 10 C-9.57142857 9 -9.57142857 9 -14 8 C-14 7.34 -14 6.68 -14 6 C-12.04414675 4.99515796 -10.08523763 3.99626195 -8.125 3 C-6.48917969 2.1646875 -6.48917969 2.1646875 -4.8203125 1.3125 C-2 0 -2 0 0 0 Z " fill="#F1F1F1" transform="translate(92,62)"/>
<path d="M0 0 C4.78894858 3.23254029 4.78894858 3.23254029 5.6875 6.5 C5 9 5 9 2 11.3125 C1.01 11.869375 0.02 12.42625 -1 13 C-0.67 14.98 -0.34 16.96 0 19 C-0.66 19.33 -1.32 19.66 -2 20 C-3.63021717 14.29423992 -3.72800824 7.7024272 -2 2 C-1.34 1.34 -0.68 0.68 0 0 Z " fill="#515151" transform="translate(73,42)"/>
<path d="M0 0 C1.45903258 0.30921884 2.91720722 0.62248799 4.375 0.9375 C5.18710938 1.11152344 5.99921875 1.28554688 6.8359375 1.46484375 C9 2 9 2 11 3 C9.5361389 7.39158329 7.02168662 7.87947433 3 10 C0 3.375 0 3.375 0 0 Z " fill="#F3F3F3" transform="translate(84,32)"/>
<path d="M0 0 C1.9375 0.75 1.9375 0.75 4 2 C4.33 3.32 4.66 4.64 5 6 C1.04 7.98 -2.92 9.96 -7 12 C-5.05372161 7.13430402 -3.07915761 4.13255363 0 0 Z " fill="#EFEFEF" transform="translate(85,55)"/>
<path d="M0 0 C0.33 0.66 0.66 1.32 1 2 C-0.21484375 4.6015625 -0.21484375 4.6015625 -1.9375 7.625 C-2.50339844 8.62789062 -3.06929688 9.63078125 -3.65234375 10.6640625 C-4.09707031 11.43492188 -4.54179688 12.20578125 -5 13 C-6.98 13 -8.96 13 -11 13 C-7.61227103 8.30840284 -4.21814817 3.9700218 0 0 Z " fill="#F6F6F6" transform="translate(106,46)"/>
<path d="M0 0 C1.98 0 3.96 0 6 0 C6 0.66 6 1.32 6 2 C6.59167969 2.06058594 7.18335937 2.12117188 7.79296875 2.18359375 C11.90978208 2.62012371 15.95544533 3.08671346 20 4 C19.67 4.99 19.34 5.98 19 7 C19 6.34 19 5.68 19 5 C13.06 4.67 7.12 4.34 1 4 C0.67 2.68 0.34 1.36 0 0 Z " fill="#2E2E2E" transform="translate(72,68)"/>
<path d="M0 0 C1.3805087 3.76668598 0.59568159 6.44789173 -0.4375 10.25 C-0.72496094 11.32765625 -1.01242188 12.4053125 -1.30859375 13.515625 C-1.53675781 14.33546875 -1.76492187 15.1553125 -2 16 C-4.23628834 12.64556749 -4.92274489 11.01726562 -5 7 C-3.60544308 4.42781723 -1.8981292 2.21995733 0 0 Z " fill="#EDEDED" transform="translate(95,41)"/>
<path d="M0 0 C3.8063457 0.67170806 7.35206816 1.72746564 11 3 C11 3.33 11 3.66 11 4 C7.97265625 4.24414062 7.97265625 4.24414062 4.9453125 4.48828125 C2.60480784 4.87393036 2.60480784 4.87393036 1 8 C0.01 7.01 -0.98 6.02 -2 5 C-1.34 4.67 -0.68 4.34 0 4 C0 2.68 0 1.36 0 0 Z " fill="#212121" transform="translate(96,33)"/>
<path d="M0 0 C1.65 1.32 3.3 2.64 5 4 C4.8125 5.875 4.8125 5.875 4 8 C1.4375 9.25 1.4375 9.25 -1 10 C-0.67 6.7 -0.34 3.4 0 0 Z " fill="#EFEFEF" transform="translate(73,42)"/>
<path d="M0 0 C2.625 -0.1875 2.625 -0.1875 5 0 C4.07456291 1.34173403 3.13422595 2.67320159 2.1875 4 C1.66542969 4.7425 1.14335937 5.485 0.60546875 6.25 C0.07566406 6.8275 -0.45414062 7.405 -1 8 C-1.99 8 -2.98 8 -4 8 C-2.87548273 5.0280615 -1.77706209 2.66559313 0 0 Z " fill="#0F0F0F" transform="translate(419,64)"/>
<path d="M0 0 C1.32 0 2.64 0 4 0 C2.62845496 2.95409701 1.01136276 5.44008376 -1 8 C-2.32 7.67 -3.64 7.34 -5 7 C-4.26708288 5.8225266 -3.51296199 4.65823146 -2.75 3.5 C-2.33234375 2.8503125 -1.9146875 2.200625 -1.484375 1.53125 C-0.74960937 0.77328125 -0.74960937 0.77328125 0 0 Z " fill="#101010" transform="translate(379,64)"/>
<path d="M0 0 C0 0.99 0 1.98 0 3 C-4.01804691 3.84098656 -7.01803543 4.05404945 -11 3 C-11 2.34 -11 1.68 -11 1 C-7.27569643 0.30710631 -3.78916254 -0.11144596 0 0 Z " fill="#EAEAEA" transform="translate(99,29)"/>
<path d="M0 0 C1.65 0 3.3 0 5 0 C5.28875 0.804375 5.5775 1.60875 5.875 2.4375 C6.73262568 5.1326468 6.73262568 5.1326468 9 6 C9 6.66 9 7.32 9 8 C8.46375 7.71125 7.9275 7.4225 7.375 7.125 C4.64719516 5.83288192 1.87387282 4.91441408 -1 4 C-0.67 2.68 -0.34 1.36 0 0 Z " fill="#171717" transform="translate(78,46)"/>
<path d="M0 0 C-1.1858237 3.37503669 -2.27573689 5.64722731 -5 8 C-4.67 6.35 -4.34 4.7 -4 3 C-6.97 5.475 -6.97 5.475 -10 8 C-7.80926025 2.88827391 -5.76796198 0 0 0 Z " fill="#454545" transform="translate(110,44)"/>
<path d="M0 0 C1.32 0 2.64 0 4 0 C2.80100302 3.0831351 1.52299523 6.06279492 0 9 C-0.33 9 -0.66 9 -1 9 C-1.09765625 2.84765625 -1.09765625 2.84765625 -1 1 C-0.67 0.67 -0.34 0.34 0 0 Z " fill="#EBEBEB" transform="translate(95,61)"/>
<path d="M0 0 C3.81684226 1.55500981 6.19195732 4.03595495 9 7 C6.03 6.01 3.06 5.02 0 4 C0 2.68 0 1.36 0 0 Z " fill="#E8E8E8" transform="translate(100,30)"/>
<path d="M0 0 C0 1.98 0 3.96 0 6 C-0.99 6 -1.98 6 -3 6 C-3.33 4.35 -3.66 2.7 -4 1 C-2 0 -2 0 0 0 Z " fill="#ECECEC" transform="translate(87,45)"/>
<path d="M0 0 C0.33 0.66 0.66 1.32 1 2 C-1.0140476 5.0210714 -2.63279613 6.60667426 -6 8 C-4.55746343 4.63408134 -2.66735273 2.48952921 0 0 Z " fill="#DEDEDE" transform="translate(106,46)"/>
</svg>
